<svg xmlns="http://www.w3.org/2000/svg" viewBox="0 0 400 400">
  <defs>
    <linearGradient id="bg" x1="0%" y1="0%" x2="100%" y2="100%">
      <stop offset="0%" style="stop-color:#e8ecfe"/>
      <stop offset="100%" style="stop-color:#dbeafe"/>
    </linearGradient>
  </defs>
  <rect width="400" height="400" fill="url(#bg)" rx="8"/>
  <!-- Laptop screen -->
  <rect x="90" y="100" width="220" height="145" rx="8" fill="#1e293b"/>
  <rect x="98" y="108" width="204" height="129" rx="4" fill="#334155"/>
  <!-- Screen content lines -->
  <rect x="115" y="130" width="80" height="6" rx="3" fill="#4f6ef7" opacity="0.8"/>
  <rect x="115" y="145" width="120" height="4" rx="2" fill="#64748b" opacity="0.5"/>
  <rect x="115" y="157" width="100" height="4" rx="2" fill="#64748b" opacity="0.5"/>
  <rect x="115" y="169" width="140" height="4" rx="2" fill="#64748b" opacity="0.5"/>
  <rect x="115" y="185" width="60" height="20" rx="4" fill="#4f6ef7" opacity="0.7"/>
  <!-- Laptop base -->
  <path d="M70 250 L90 245 L310 245 L330 250 L340 265 L60 265 Z" fill="#475569"/>
  <rect x="175" y="245" width="50" height="4" rx="2" fill="#64748b"/>
  <!-- Category label -->
  <text x="200" y="320" text-anchor="middle" font-family="system-ui,sans-serif" font-size="14" fill="#64748b" font-weight="500">Electronics</text>
</svg>
