<svg xmlns="http://www.w3.org/2000/svg" viewBox="0 0 400 400">
  <defs>
    <linearGradient id="bg" x1="0%" y1="0%" x2="100%" y2="100%">
      <stop offset="0%" style="stop-color:#f1f5f9"/>
      <stop offset="100%" style="stop-color:#e2e8f0"/>
    </linearGradient>
  </defs>
  <rect width="400" height="400" fill="url(#bg)" rx="8"/>
  <!-- Chair back (mesh) -->
  <path d="M155 70 Q200 55 245 70 L250 195 Q200 205 150 195 Z" fill="#334155" opacity="0.85"/>
  <!-- Mesh pattern -->
  <line x1="170" y1="80" x2="170" y2="190" stroke="#475569" stroke-width="0.5" opacity="0.4"/>
  <line x1="200" y1="72" x2="200" y2="198" stroke="#475569" stroke-width="0.5" opacity="0.4"/>
  <line x1="230" y1="80" x2="230" y2="190" stroke="#475569" stroke-width="0.5" opacity="0.4"/>
  <line x1="152" y1="110" x2="248" y2="105" stroke="#475569" stroke-width="0.5" opacity="0.3"/>
  <line x1="151" y1="140" x2="249" y2="140" stroke="#475569" stroke-width="0.5" opacity="0.3"/>
  <line x1="151" y1="170" x2="249" y2="170" stroke="#475569" stroke-width="0.5" opacity="0.3"/>
  <!-- Lumbar support -->
  <path d="M155 160 Q200 170 245 160" fill="none" stroke="#1e293b" stroke-width="3" opacity="0.4"/>
  <!-- Seat -->
  <ellipse cx="200" cy="220" rx="70" ry="20" fill="#1e293b" opacity="0.8"/>
  <!-- Armrests -->
  <rect x="120" y="170" width="8" height="55" rx="3" fill="#475569"/>
  <rect x="272" y="170" width="8" height="55" rx="3" fill="#475569"/>
  <rect x="115" y="168" width="18" height="6" rx="3" fill="#64748b"/>
  <rect x="267" y="168" width="18" height="6" rx="3" fill="#64748b"/>
  <!-- Cylinder -->
  <rect x="194" y="240" width="12" height="50" rx="2" fill="#475569"/>
  <!-- Base star -->
  <line x1="200" y1="290" x2="130" y2="310" stroke="#475569" stroke-width="5" stroke-linecap="round"/>
  <line x1="200" y1="290" x2="270" y2="310" stroke="#475569" stroke-width="5" stroke-linecap="round"/>
  <line x1="200" y1="290" x2="160" y2="315" stroke="#475569" stroke-width="5" stroke-linecap="round"/>
  <line x1="200" y1="290" x2="240" y2="315" stroke="#475569" stroke-width="5" stroke-linecap="round"/>
  <!-- Wheels -->
  <circle cx="130" cy="312" r="6" fill="#334155"/>
  <circle cx="270" cy="312" r="6" fill="#334155"/>
  <circle cx="160" cy="317" r="6" fill="#334155"/>
  <circle cx="240" cy="317" r="6" fill="#334155"/>
  <!-- Category label -->
  <text x="200" y="365" text-anchor="middle" font-family="system-ui,sans-serif" font-size="14" fill="#64748b" font-weight="500">Home &amp; Garden</text>
</svg>
